<svg width="1024" height="239" viewBox="0 0 1024 239" fill="none" xmlns="http://www.w3.org/2000/svg">
<path d="M865.334 113.834V0H975.334V113.834H1024V239H914.334V113.834H865.334Z" fill="white"/>
<path d="M789.333 113.167C789.333 102.5 787.833 92.5 784.833 83.1667C781.833 73.8333 777.5 65.6667 771.833 58.6667C766.167 51.6667 759.167 46 750.833 41.6667C742.5 37.3333 733.333 35.1667 723.333 35.1667C713.333 35.1667 704.167 37.3333 695.833 41.6667C687.5 46 680.5 51.6667 674.833 58.6667C669.167 65.6667 664.833 73.8333 661.833 83.1667C658.833 92.5 657.333 102.5 657.333 113.167C657.333 123.833 658.833 133.833 661.833 143.167C664.833 152.5 669.167 160.667 674.833 167.667C680.5 174.667 687.5 180.333 695.833 184.667C704.167 189 713.333 191.167 723.333 191.167C733.333 191.167 742.5 189 750.833 184.667C759.167 180.333 766.167 174.667 771.833 167.667C777.5 160.667 781.833 152.5 784.833 143.167C787.833 133.833 789.333 123.833 789.333 113.167ZM723.333 162C717.333 162 712 160.667 707.333 158C702.667 155.333 698.667 151.667 695.333 147C692 142.333 689.667 136.833 688.333 130.5C687 124.167 686.333 118 686.333 112.167C686.333 106.333 687 99.8333 688.333 92.6667C689.667 85.5 692 79.5 695.333 74.6667C698.667 69.8333 702.667 66.1667 707.333 63.6667C712 61.1667 717.333 60 723.333 60C729.333 60 734.667 61.1667 739.333 63.6667C744 66.1667 748 69.8333 751.333 74.6667C754.667 79.5 757 85.5 758.333 92.6667C759.667 99.8333 760.333 106.333 760.333 112.167C760.333 118 759.667 124.167 758.333 130.5C757 136.833 754.667 142.333 751.333 147C748 151.667 744 155.333 739.333 158C734.667 160.667 729.333 162 723.333 162Z" fill="white"/>
<path d="M532.166 125.167H587.499V189.667H626.332V36.6667H532.166V125.167Z" fill="white"/>
<path d="M495.499 189.667V36.6667H456.666V189.667H495.499Z" fill="white"/>
<path d="M298.834 36.6667L357.667 189.667H396.167L337.334 36.6667H298.834Z" fill="white"/>
<path d="M198.833 113.167C198.833 102.5 197.333 92.5 194.333 83.1667C191.333 73.8333 187 65.6667 181.333 58.6667C175.667 51.6667 168.667 46 160.333 41.6667C152 37.3333 142.833 35.1667 132.833 35.1667C122.833 35.1667 113.667 37.3333 105.333 41.6667C97 46 90 51.6667 84.3333 58.6667C78.6667 65.6667 74.3333 73.8333 71.3333 83.1667C68.3333 92.5 66.8333 102.5 66.8333 113.167C66.8333 123.833 68.3333 133.833 71.3333 143.167C74.3333 152.5 78.6667 160.667 84.3333 167.667C90 174.667 97 180.333 105.333 184.667C113.667 189 122.833 191.167 132.833 191.167C142.833 191.167 152 189 160.333 184.667C168.667 180.333 175.667 174.667 181.333 167.667C187 160.667 191.333 152.5 194.333 143.167C197.333 133.833 198.833 123.833 198.833 113.167ZM132.833 162C126.833 162 121.5 160.667 116.833 158C112.167 155.333 108.167 151.667 104.833 147C101.5 142.333 99.1667 136.833 97.8333 130.5C96.5 124.167 95.8333 118 95.8333 112.167C95.8333 106.333 96.5 99.8333 97.8333 92.6667C99.1667 85.5 101.5 79.5 104.833 74.6667C108.167 69.8333 112.167 66.1667 116.833 63.6667C121.5 61.1667 126.833 60 132.833 60C138.833 60 144.167 61.1667 148.833 63.6667C153.5 66.1667 157.5 69.8333 160.833 74.6667C164.167 79.5 166.5 85.5 167.833 92.6667C169.167 99.8333 169.833 106.333 169.833 112.167C169.833 118 169.167 124.167 167.833 130.5C166.5 136.833 164.167 142.333 160.833 147C157.5 151.667 153.5 155.333 148.833 158C144.167 160.667 138.833 162 132.833 162Z" fill="white"/>
<path d="M0 113.167C0 102.5 1.5 92.5 4.5 83.1667C7.5 73.8333 11.8333 65.6667 17.5 58.6667C23.1667 51.6667 30.1667 46 38.5 41.6667C46.8333 37.3333 56 35.1667 66 35.1667V67.1667C61 67.1667 56.5 68.3333 52.5 70.6667C48.5 73 45.3333 76.3333 43 80.6667C40.6667 85 39.5 90 39.5 95.6667V189.667H0.666667V113.167H0Z" fill="white"/>
</svg>
