<svg width="60" height="25" viewBox="0 0 60 25" fill="none" xmlns="http://www.w3.org/2000/svg">
<path d="M43.0886 6.36875C42.4284 5.3182 41.4883 4.50296 40.3881 4.04537C39.288 3.58778 38.0778 3.51199 36.9177 3.83227C35.7576 4.15255 34.7275 4.85176 33.9774 5.82098C33.2274 6.7902 32.8073 7.97193 32.7873 9.20455H49.2091C49.1891 7.97193 48.769 6.7902 48.019 5.82098C47.2689 4.85176 46.2388 4.15255 45.0787 3.83227C43.9186 3.51199 42.7084 3.58778 41.6083 4.04537C40.5081 4.50296 39.568 5.3182 38.9079 6.36875L35.8075 11.4545L38.9079 16.5404C39.568 17.5909 40.5081 18.4061 41.6083 18.8637C42.7084 19.3213 43.9186 19.3971 45.0787 19.0768C46.2388 18.7565 47.2689 18.0573 48.019 17.0881C48.769 16.1189 49.1891 14.9372 49.2091 13.7045H32.7873V25H59.5V11.4545L43.0886 6.36875Z" fill="white"/>
<path d="M22.9545 0H0V25H12.7273V13.5455H18.7841C20.25 13.5455 21.6136 12.983 22.6136 11.983C23.6136 10.983 24.1761 9.61932 24.1761 8.15341C24.1761 6.6875 23.6136 5.32386 22.6136 4.32386C21.6136 3.32386 20.25 2.76136 18.7841 2.76136H12.7273V0H22.9545Z" fill="white"/>
</svg>
